<?xml version="1.0" standalone="no"?><!DOCTYPE svg PUBLIC "-//W3C//DTD SVG 1.1//EN" "http://www.w3.org/Graphics/SVG/1.1/DTD/svg11.dtd"><svg t="1713150922597" class="icon" viewBox="0 0 1024 1024" version="1.1" xmlns="http://www.w3.org/2000/svg" p-id="32230" xmlns:xlink="http://www.w3.org/1999/xlink" width="48" height="48"><path d="M795.615964 368.695177l-0.698918-1.399883c-0.958838-1.840928-1.879813-3.663436-2.836605-5.485945l-0.293689-0.573051c-0.995677-1.933025-2.025123-3.865028-3.055592-5.762237l-0.479931-0.938372-2.467191-4.603855-0.551562-0.994654-0.074701-0.147356-0.293689-0.514723c-0.957815-1.749854-1.915629-3.480264-2.908236-5.210675l-0.296759-0.553609c-0.99363-1.76725-1.987261-3.535523-3.01773-5.285377l-0.811482-1.417279c-0.917906-1.639337-1.876744-3.25923-2.835581-4.879124l-0.73678-1.215688c-0.958838-1.638313-1.913583-3.258207-2.910283-4.879124l-0.220011-0.349971-0.148379-0.275269c-1.104147-1.805112-2.208295-3.589758-3.313465-5.376451l-0.36839-0.569982c-1.030469-1.713015-2.097778-3.40761-3.166109-5.082762l-0.884137-1.417279c-0.994654-1.5104-1.951445-3.037173-2.945075-4.548596l-0.294712-0.460488-0.332575-0.514723-2.870374-4.344958-1.105171-1.620917-2.726088-4.088108-1.177825-1.674129-3.131317-4.584412-0.73678-1.013073-2.980891-4.197602-1.290389-1.768273-2.689249-3.738138-0.956791-1.287319-3.203972-4.327562-1.067308-1.39886-3.019777-3.959172-1.363044-1.74883-2.90926-3.75451-1.252527-1.584078-2.981914-3.756557-0.884137-1.085728c-1.067308-1.326205-2.13564-2.632967-3.239787-3.959172l-1.620917-1.969864-0.295735-0.36839-2.503007-2.982938-0.184195-0.185218-1.5104-1.804089-2.87242-3.351328-0.515746-0.62524-0.036839-0.036839-0.771573-0.847298-2.578732-2.964518-1.769296-2.007727-3.239787-3.626597-1.435699-1.564635-3.239787-3.517103-1.840928-1.970888-1.694595-1.840928-3.276626-3.442402-1.842974-1.915629-2.062985-2.136663-3.091408-3.110851-1.768273-1.786693-3.240811-3.240811-1.61887-1.564635-2.468215-2.411933-3.682879-3.518127-0.994654-0.938372-2.467191-2.338255-3.388167-3.130294-1.583055-1.472538-2.798742-2.540869-2.90926-2.578732-1.731434-1.546216-3.5345-3.093455-2.134617-1.840928-1.987261-1.730411-0.258896-0.221034-2.984984-2.503007c-46.949288-39.549761-100.456946-72.213695-160.111604-98.30391-78.069053 82.635045-156.138106 165.249625-234.206136 247.885693 16.570397 34.190707 35.462676 66.284659 56.857962 96.113011L1.565147 744.287437l12.114922 100.110045 38.297234 7.197936 233.285161-246.929926 19.628036 18.560728L83.536067 857.542874l47.356564 8.91095 12.70537-13.458523 41.648562 6.463202 17.602913-18.634406-11.490705-38.391379 8.727779-9.224082 41.648562 6.462179 17.565051-18.634406-11.45182-38.389332 8.69094-9.223059 41.648562 6.460132 17.60189-18.632359-11.45182-38.370913 48.609091-51.482535 27.175943 25.722848 82.488713-87.294159c31.116695 19.942191 64.957431 37.46938 101.634772 52.384068l93.683682-99.16758c-2.209318-4.181229-4.347005-8.341992-6.371104-12.465916-14.178931-28.54001-26.698059-60.246129-35.020608-92.118024L435.912579 247.835551l64.258513-68.016093 89.593528 84.660168 108.412129 102.410438-7.953136 8.984628 0.038886 0.073678c0.255827 2.025123 0.476861 3.773953 0.661056 4.971222 3.976568 26.587542 14.360056 54.942333 26.03291 79.614246l18.450211-19.498076-0.257873-0.478907 58.883085-61.644989 0.035816 0.036839 4.345981-4.621251C797.494755 372.449687 796.53694 370.572944 795.615964 368.695177L795.615964 368.695177zM679.066505 384.749828c-0.329505 5.174859 0.109494 12.079106 1.324158 20.179598 3.390213 22.575158 12.668531 51.094702 27.104311 80.204693l0 0c8.027837 16.238846 16.679891 30.638811 25.298176 42.624796l14.362102-14.859429 12.55699-12.9438 38.22458-39.47813 47.097668 48.609091 0 0 49.823755 51.462069 0-36.014238-12.226462 0 0-30.785144 29.903054 0L969.023386 493.749334l0 30.785144-13.549597 0 0 26.200732 0 72.379471 17.674545 18.228153 0 0 50.485835 52.164057-16.755616 30.692023L965.452048 724.198913c0 71.201645 0 142.420687 0 213.637682L629.71961 937.836595c0-71.218018 0-142.436036 0-213.637682l-43.120077 0-18.339694-26.586518 101.967346-105.283882 18.412348-19.019169c11.307533 15.926738 23.715121 30.878265 37.119409 43.581588 8.322549 7.899924 18.228153 15.947204 29.055756 22.224164 8.580422 12.761652 23.125697 21.156856 39.659255 21.156856 14.913665 0 28.246321-6.868431 37.008892-17.602913l0-0.034792 0.626263-0.793062 0.037862-0.019443 0.624217-0.809435 0-0.01842 0.588401-0.809435 0.037862-0.054235c0.589424-0.831948 1.14201-1.659803 1.656733-2.506077l0.109494-0.164752c1.140986-1.824555 2.137687-3.739161 2.983961-5.708002l0.036839-0.054235 0.404206-0.939395 0-0.020466c1.620917-3.993964 2.761903-8.266267 3.278673-12.721743l0-0.019443c0.183172-1.769296 0.294712-3.590781 0.294712-5.432733 0-18.634406-10.68127-34.779108-26.25599-42.623773 10.862395 24.193005 0.403183 50.946322-27.250644 54.315046-15.210423 1.87879-33.511231-7.364735-52.402487-25.296129-20.805862-19.811208-43.157939-51.077306-62.013379-89.11769l0 0c-18.853393-38.057781-31.227212-76.706009-35.977399-108.37529-3.203972-21.524223-3.018753-40.469714 0.73678-55.218626L679.066505 384.749828 679.066505 384.749828zM747.855194 848.096734 747.855194 729.981616l98.321306 0 0 118.115118L747.855194 848.096734z" fill="#bfcbd9" p-id="32231"></path></svg>