<?xml version="1.0" standalone="no"?><!DOCTYPE svg PUBLIC "-//W3C//DTD SVG 1.1//EN" "http://www.w3.org/Graphics/SVG/1.1/DTD/svg11.dtd"><svg t="1713150501193" class="icon" viewBox="0 0 1024 1024" version="1.1" xmlns="http://www.w3.org/2000/svg" p-id="2163" xmlns:xlink="http://www.w3.org/1999/xlink" width="48" height="48"><path d="M955.16444445 419.04355555h-18.432L530.432 177.26577778h-36.97777778L87.15377778 419.04355555h-18.432v-52.33777777L197.97333333 292.06755555V177.26577778c0-12.74311111 5.12-18.65955555 18.432-18.65955556h36.97777778c13.312 0 18.432 5.80266667 18.432 18.65955556v72.13511111l221.63911111-127.88622222h36.97777778l424.73244445 244.28088888v53.248zM493.568 233.13066667h36.97777778L918.30044445 456.24888889v353.28c0 56.66133333-49.37955555 92.95644445-107.29244445 92.95644444H210.03377778c-57.91288889 0-104.78933333-45.85244445-104.78933333-102.51377778l0.4551111-343.72266666 387.86844445-223.11822222z m-110.81955555 594.944h258.5031111V512H382.74844445v316.07466667z" fill="" p-id="2164"></path></svg>